
<svg version="1.1" xmlns="http://www.w3.org/2000/svg" xmlns:xlink="http://www.w3.org/1999/xlink">
	<!--GLOBAL-->
	<symbol id="lamp" viewBox="0 0 937 937">
		<rect fill="transparent" width="937" height="937"/>
		<path d="M333 646c-28,-20 -49,-47 -64,-77 -16,-31 -24,-65 -24,-100 0,-62 25,-118 66,-159 0,-1 1,-1 1,-2 41,-39 96,-64 157,-64 61,0 117,25 158,66l0 0c40,41 65,97 65,159 0,35 -8,69 -24,100 -15,30 -36,57 -64,77 -7,8 -13,17 -18,27 -1,2 -2,4 -3,6l-1 1c-5,13 -8,27 -8,42 0,2 0,5 0,7l0 1c0,3 0,5 0,8 1,1 1,2 1,4l0 0c0,29 -12,56 -31,75 -19,20 -46,32 -75,32 -30,0 -57,-12 -76,-32 -19,-19 -31,-46 -31,-75 0,-2 0,-4 0,-6 1,-2 1,-4 1,-6l0 -1 0 0c0,-2 0,-5 0,-7 0,-15 -3,-29 -8,-42l-1 -1c-1,-2 -2,-4 -3,-6 -4,-10 -11,-19 -18,-27l0 0zm-12 -103c11,22 27,42 47,58 2,1 3,2 4,3 10,9 18,19 25,30l143 0c7,-11 15,-21 25,-30l0 0c1,-1 2,-2 3,-3 21,-15 37,-36 48,-58 12,-23 18,-48 18,-74 0,-46 -19,-88 -49,-118l0 0 0 0c-29,-30 -71,-48 -116,-48 -45,0 -86,18 -116,47 0,0 -1,1 -1,1 -30,30 -49,72 -49,118 0,26 6,51 18,74zm195 179c0,-10 1,-20 2,-29l-99 0c2,9 2,19 2,29 0,3 0,7 0,12l0 0c0,3 -1,6 -1,9 0,13 6,25 14,33 9,9 21,14 35,14 13,0 25,-5 34,-14 8,-8 14,-20 14,-33 0,-3 -1,-6 -1,-8l0 -1c0,-5 0,-9 0,-12zm-397 -224c-16,0 -29,-13 -29,-29 0,-17 13,-30 29,-30l39 0c16,0 29,13 29,30 0,16 -13,29 -29,29l-39 0zm320 -381c0,-16 13,-29 30,-29 16,0 29,13 29,29l0 39c0,17 -13,30 -29,30 -17,0 -30,-13 -30,-30l0 -39zm341 381c-17,0 -30,-13 -30,-29 0,-17 13,-30 30,-30l38 0c16,0 30,13 30,30 0,16 -14,29 -30,29l-38 0zm-581 -258c-11,-12 -11,-30 0,-42 12,-11 30,-11 41,0l28 28c11,11 11,29 0,41 -12,11 -30,11 -42,0l-27 -27zm498 -42c11,-11 30,-11 41,0 11,12 11,30 0,42l-27 27c-12,11 -30,11 -42,0 -11,-12 -11,-30 0,-41l28 -28z"/>
	</symbol>
	<symbol id="caret-down" viewBox="0 0 2691 2691">
		<rect fill="transparent" width="2691" height="2691"/>
		<path d="M615 1069c-33,-33 -33,-86 -1,-119 33,-32 86,-33 118,0l614 613 613 -613c33,-33 85,-32 118,0 32,33 32,86 0,119l-673 672c-32,32 -85,33 -117,0l-672 -672z"/>
	</symbol>
	<symbol id="store" viewBox="0 0 347 347">
		<rect fill="transparent" width="347" height="347"/>
		<path d="M43 314c-5,0 -10,-5 -10,-11 0,-6 5,-11 10,-11l19 0 0 -128c-5,-3 -10,-6 -13,-10 -10,-10 -16,-23 -16,-38l0 0 0 -15c0,-2 0,-4 1,-6l29 -56c2,-4 5,-6 9,-6l0 0 202 0c5,0 9,3 10,7l28 55c1,2 2,4 2,6l0 15c0,15 -6,28 -16,38 -4,4 -8,7 -13,10l0 128 18 0c6,0 11,5 11,11 0,6 -5,11 -11,11l-29 0 -144 0 -58 0 -29 0zm40 -22l36 0 0 -46c0,-11 5,-21 12,-29 7,-7 17,-11 28,-11l0 0 29 0 0 0 0 0c11,0 21,4 28,11 7,8 11,18 11,29l0 0 0 0 0 46 37 0 0 -122c-2,0 -3,0 -4,0l0 0 0 0c-15,0 -28,-6 -38,-16 -2,-2 -4,-4 -5,-6 -2,2 -4,4 -5,6 -10,10 -24,16 -39,16 -15,0 -28,-6 -38,-16 -2,-2 -3,-4 -5,-6 -1,2 -3,4 -5,6 -10,10 -23,16 -38,16 -1,0 -3,0 -4,0l0 122zm58 0l65 0 0 -46 0 0 0 0c0,-5 -2,-10 -5,-13 -4,-3 -8,-5 -13,-5l0 0 0 -1 -29 0 0 1c-5,0 -10,2 -13,5 -3,3 -5,8 -5,13l0 46zm-87 -180l0 4 0 0c0,9 4,17 10,23 6,5 14,9 23,9 9,0 17,-4 23,-9 6,-6 9,-14 9,-23l0 0 0 -1 0 -3 -65 0zm87 4l0 0c0,9 4,17 9,23 6,5 14,9 23,9 9,0 18,-4 23,-9 6,-6 10,-14 10,-23l0 -4 -65 0 0 4zm-12 -26c0,0 1,0 1,0 0,0 1,0 1,0l85 0c0,0 0,0 1,0 0,0 0,0 1,0l68 0 -18 -36 -189 0 -18 36 68 0zm98 22l0 3 0 1 0 0c0,9 4,17 10,23 6,6 14,9 23,9l0 0 0 0c9,0 17,-4 23,-9 6,-6 10,-14 10,-23l0 -4 -66 0z"/>
	</symbol>
	<symbol id="television" viewBox="0 0 279 279">
		<rect fill="transparent" width="279" height="279"/>
		<path d="M26 110c0,-8 4,-16 10,-22 5,-6 13,-10 22,-10l60 0 -31 -31c-3,-3 -4,-9 0,-12 3,-4 9,-4 12,0l40 40 41 -40c3,-4 9,-4 12,0 3,3 3,9 0,12l-32 31 14 0 47 0c8,0 16,4 22,10 6,6 10,14 10,22l0 105c0,9 -4,17 -10,22 -6,6 -14,10 -22,10l0 0 -46 0c0,0 0,0 -1,0 0,0 0,0 -1,0l-115 0c-9,0 -17,-4 -22,-10 -6,-5 -10,-13 -10,-22l0 0 0 -105zm22 -10c-3,3 -4,6 -4,10l0 105 0 0c0,4 1,8 4,10 2,3 6,4 10,4l108 0 0 -133 -108 0c-4,0 -8,2 -10,4zm173 -4l-38 0 0 133 38 0 0 0c4,0 7,-1 10,-4 3,-2 4,-6 4,-10l0 -105c0,-4 -1,-7 -4,-10 -3,-2 -6,-4 -10,-4zm-21 84c0,-5 4,-9 9,-9 5,0 9,4 9,9l0 0c0,5 -4,9 -9,9 -5,0 -9,-4 -9,-9l0 0zm0 -35c0,-5 4,-8 9,-8 5,0 9,3 9,8l0 0c0,5 -4,9 -9,9 -5,0 -9,-4 -9,-9l0 0z"/>
	</symbol>
	<symbol id="icons" viewBox="0 0 232 232">
		<rect fill="transparent" width="232" height="232"/>
		<path d="M135 31l58 0c4,0 7,4 7,8l0 57c0,4 -3,8 -7,8 0,0 -1,0 -1,0l-57 0c-4,0 -7,-4 -7,-8l0 0 0 -57c0,-4 3,-8 7,-8zm51 15l-44 0 0 43 44 0 0 -43zm-147 82l57 0c4,0 8,3 8,7l0 58c0,4 -4,7 -8,7 0,0 0,0 0,0l-57 0c-4,0 -8,-3 -8,-7l0 0 0 -58c0,-4 4,-7 8,-7zm50 14l-43 0 0 44 43 0 0 -44zm53 22l0 0 0 0c0,6 3,11 7,15 4,4 9,7 15,7l0 0 0 0c6,0 11,-3 15,-7 4,-4 7,-9 7,-15 0,-6 -3,-11 -7,-15 -4,-4 -9,-7 -15,-7 -6,0 -12,3 -15,7 -4,4 -7,9 -7,15zm-4 26c-6,-7 -10,-16 -10,-26l0 0c0,-10 4,-19 10,-26 7,-6 16,-10 26,-10 10,0 19,4 25,10 7,7 11,16 11,26 0,10 -4,19 -11,26 -6,6 -15,10 -25,10l0 0 0 0c-10,0 -19,-4 -26,-10zm-92 -122c0,6 2,11 6,15 4,4 10,6 16,6 6,0 11,-2 15,-6 4,-4 6,-9 6,-15 0,-6 -2,-12 -6,-16 -4,-4 -9,-6 -15,-6 -6,0 -12,2 -16,6 -4,4 -6,10 -6,16 0,0 0,0 0,0zm-4 25c-6,-6 -10,-15 -11,-25 0,0 0,0 0,0 0,-10 5,-19 11,-26 7,-7 16,-11 26,-11 10,0 19,4 25,11 7,7 11,16 11,26 0,10 -4,19 -11,25 -6,7 -15,11 -25,11 -10,0 -19,-4 -26,-11z"/>
	</symbol>
	<symbol id="photo" viewBox="0 0 197 197">
		<rect fill="transparent" width="197" height="197"/>
		<path d="M123 72c-3,0 -6,-3 -6,-6 0,-4 3,-6 6,-6l0 0c4,0 6,2 6,6 0,3 -2,6 -6,6l0 0zm-104 -23c0,-9 3,-16 9,-21 5,-6 13,-9 21,-9l99 0c8,0 16,3 21,9 6,5 9,13 9,21l0 99c0,8 -3,16 -9,21 -5,6 -13,9 -21,9l0 0 -99 0c-8,0 -16,-3 -21,-9 -6,-5 -9,-13 -9,-21l0 -99c0,0 0,0 0,0zm17 -13c-3,3 -5,8 -5,13 0,0 0,0 0,0l0 67 30 -30 0 0 0 0c5,-5 11,-7 17,-7 6,0 12,2 17,7l0 0 20 20 4 -4 0 0 0 0c5,-5 11,-7 16,-7 6,0 12,2 17,7l0 0 14 14 0 -67c0,-5 -2,-9 -5,-13 -4,-3 -8,-5 -13,-5l-99 0c-5,0 -9,2 -13,5zm130 112l0 -14 -23 -23 0 0c-2,-2 -5,-4 -8,-4 -2,0 -5,2 -8,4l-3 4 12 12c2,2 2,6 0,9 -3,2 -7,2 -9,0l-41 -41 0 0c-3,-3 -5,-4 -8,-4 -3,0 -5,1 -8,4l-39 39 0 14c0,5 2,9 5,13 4,3 8,5 13,5l99 0 0 0c5,0 9,-2 13,-5 3,-4 5,-8 5,-13zm-71 -62l0 0 0 0zm57 16l0 0 0 0z"/>
	</symbol>
	<symbol id="book" viewBox="0 0 172 172">
		<rect fill="transparent" width="172" height="172"/>
		<path d="M141 29l0 85 0 29c0,3 -2,5 -5,5 0,0 0,0 -1,0l-85 0c-5,0 -10,-2 -14,-5 -3,-4 -6,-9 -6,-14l0 0 0 -86c0,-5 3,-10 6,-14 4,-3 9,-6 14,-6l0 0 86 0c3,0 5,3 5,6l0 0zm-10 109l0 -18 -81 0 0 0c-2,0 -5,1 -6,2 -2,2 -3,4 -3,6l0 1 0 0c0,2 1,4 3,6 1,2 4,3 6,3l81 0zm0 -29l0 -75 -81 0 0 0c-2,0 -5,1 -6,3 -2,1 -3,3 -3,6l0 68c3,-1 6,-2 9,-2l0 0 81 0zm-67 -46c-3,0 -5,-3 -5,-6 0,-3 2,-5 5,-5l43 0c3,0 6,2 6,5 0,3 -3,6 -6,6l-43 0z"/>
	</symbol>
	<symbol id="puzzle" viewBox="0 0 152 152">
		<rect fill="transparent" width="152" height="152"/>
		<path d="M25 49l0 0c0,0 -1,0 -1,1 0,0 0,0 0,1l0 19c0,0 0,0 0,1 0,0 1,0 1,0l7 0c4,0 9,2 12,5 3,3 5,8 5,13 0,4 -2,9 -5,12 -3,3 -8,5 -12,5l-7 0 0 0c0,0 -1,0 -1,0 0,1 0,1 0,2l0 19c0,0 0,0 0,1 1,0 1,0 1,0l19 0 0 0c1,0 1,0 1,0 1,-1 1,-1 1,-1l0 -7c0,-5 2,-9 5,-12 3,-3 8,-5 12,-5 5,0 9,2 13,5 3,3 5,7 5,12l0 7c0,0 0,0 0,1 0,0 1,0 1,0l0 0 19 0 0 0 0 0 0 0c1,0 1,0 1,0 1,-1 1,-1 1,-1l0 0 0 -19 0 0 0 0c0,-4 1,-6 3,-8 2,-2 5,-4 8,-4l0 0 0 1 6 0 0 -1c2,0 4,0 6,-2 1,-1 2,-3 2,-5 0,-3 -1,-5 -2,-6 -2,-1 -4,-2 -6,-2l-6 0 0 0 0 0c-3,0 -6,-2 -8,-4 -2,-2 -3,-4 -3,-7l0 0 0 -19 0 0c0,-1 0,-1 -1,-1 0,-1 0,-1 -1,-1l0 0 -19 0c-3,0 -6,-1 -8,-3 -2,-2 -3,-5 -3,-8l0 -6c0,-3 -1,-4 -2,-6 -2,-1 -3,-2 -6,-2 -2,0 -4,1 -5,2 -2,2 -3,3 -3,6l0 6c0,3 -1,6 -3,8 -2,2 -5,3 -8,3l-19 0zm0 -9l19 0c1,0 1,-1 1,-1 1,0 1,-1 1,-1l0 -6c0,-5 2,-9 5,-13 3,-3 8,-5 12,-5 5,0 9,2 13,5 3,4 5,8 5,13l0 6c0,0 0,1 0,1 0,0 1,1 1,1l19 0 0 0c3,0 6,1 8,3 2,2 3,5 3,8l0 0 0 19 0 0c0,0 0,0 1,1 0,0 0,0 1,0l0 0 0 0 6 0c5,0 9,2 12,5 4,3 6,8 6,13 0,4 -2,9 -6,12 -3,3 -7,5 -12,5l0 0 -6 0 0 0 0 0c-1,0 -1,0 -1,0 -1,1 -1,1 -1,2l0 0 0 0 0 19 0 0c0,3 -1,5 -3,7 -2,2 -5,4 -8,4l0 0 0 0 0 0 -19 0 0 0c-3,0 -6,-2 -8,-4 -2,-2 -3,-4 -3,-7l0 -7c0,-2 -1,-4 -2,-5 -2,-2 -3,-3 -6,-3 -2,0 -4,1 -5,3 -2,1 -3,3 -3,5l0 7c0,3 -1,5 -3,7 -2,2 -5,4 -8,4l0 0 -19 0c-3,0 -5,-2 -7,-4 -2,-2 -4,-4 -4,-7l0 -19c0,-3 2,-6 4,-8 2,-2 4,-4 7,-4l0 1 7 0c2,0 4,-1 5,-3 2,-1 3,-3 3,-5 0,-3 -1,-5 -3,-6 -1,-1 -3,-2 -5,-2l-7 0c-3,0 -5,-2 -7,-4 -2,-2 -4,-4 -4,-7l0 -19c0,-3 2,-6 4,-8 2,-2 4,-3 7,-3l0 0z"/>
	</symbol>
	<symbol id="code-setting" viewBox="0 0 137 137">
		<rect fill="transparent" width="137" height="137"/>
		<path d="M64 115c2,1 3,3 3,5 -1,3 -3,4 -6,3 -2,-1 -4,-2 -6,-4 -1,-1 -3,-4 -3,-6l0 0c-1,-1 -1,-2 -2,-3 -1,-1 -2,-1 -4,-1 0,0 -1,0 -1,0l0 0c-1,0 -1,0 -1,1 -4,2 -8,2 -11,1 -3,0 -5,-2 -7,-4l0 0c-1,-1 -3,-3 -3,-6 -1,-3 -1,-7 1,-11 0,0 1,-1 1,-1 0,-1 0,-1 0,-2 0,-1 0,-2 -1,-3 -1,-1 -2,-2 -3,-2 -4,-1 -7,-3 -9,-7 -1,-2 -2,-4 -2,-7 0,-2 1,-5 2,-7 2,-3 5,-5 9,-6l0 0c1,-1 2,-1 3,-2 1,-1 1,-2 1,-4 0,0 0,-1 0,-1 0,-1 -1,-1 -1,-2 -2,-3 -2,-7 -1,-10 0,-3 2,-5 3,-7 2,-2 4,-3 7,-4 3,-1 7,0 11,2 0,0 1,1 1,1 1,0 2,0 4,-1 1,0 2,-1 2,-2 0,0 1,-1 1,-1 1,-5 3,-7 6,-9 2,-1 5,-2 7,-2 3,0 5,1 8,2 3,2 5,4 6,9 0,1 1,2 2,3 1,0 2,1 4,1 0,0 1,0 1,0l0 0c1,0 1,-1 1,-1 4,-2 8,-3 11,-2 3,1 5,2 7,4l0 0c1,2 3,4 3,7 1,3 1,7 -1,10 -1,1 -1,1 -1,2 0,0 0,1 0,1 0,2 0,3 1,4 1,1 2,1 3,2 2,0 4,1 5,2 3,2 4,4 5,7 1,2 1,5 0,8 0,1 -1,3 -2,5 -1,2 -4,2 -6,1 -2,-2 -2,-4 -1,-6 1,-1 1,-2 1,-2 1,-1 0,-3 0,-4 0,-1 -1,-1 -2,-2 0,-1 -1,-1 -2,-1 -3,-1 -6,-3 -8,-5 -1,-2 -3,-6 -3,-9 0,-1 1,-2 1,-4 0,-1 1,-2 1,-3 1,-2 2,-3 1,-4 0,-1 -1,-2 -1,-3l0 0 0 0c-1,-1 -2,-1 -3,-1 -1,-1 -3,-1 -4,0 -1,1 -2,2 -4,2l0 0 0 0c-1,0 -2,0 -3,0 -4,0 -7,-1 -9,-3 -3,-2 -4,-4 -5,-7 -1,-2 -1,-3 -3,-4 0,0 -1,-1 -3,-1 -1,0 -2,1 -2,1 -2,1 -3,2 -3,4 0,1 -1,2 -2,4 -1,2 -4,4 -6,5 -3,1 -6,2 -9,1 -1,0 -3,-1 -4,-2 -1,-1 -3,-1 -4,0 -1,0 -2,0 -3,1 0,1 -1,2 -1,3 -1,1 0,2 0,4 1,1 2,2 2,3 0,2 1,3 1,4 0,3 -2,7 -4,9 -1,2 -4,4 -7,5l0 0c-2,0 -3,1 -4,2 0,1 0,2 0,3 0,1 0,2 0,3 1,1 2,2 4,3 3,0 6,2 7,5 2,2 4,5 4,8 0,2 -1,3 -1,4 0,1 -1,3 -2,4 0,1 -1,3 0,4 0,1 1,2 1,2l0 0 0 0c1,1 2,2 3,2 1,0 3,0 4,-1 1,0 2,-1 4,-1l0 0 0 0c1,-1 2,-1 3,-1 4,0 7,1 9,3 2,2 4,5 5,8 0,0 0,0 0,0 0,1 1,2 1,3 1,0 2,1 3,1zm-11 -46c0,3 1,6 3,8 3,3 6,4 9,4 4,0 7,-1 10,-4 2,-2 3,-5 3,-9 0,-3 -1,-6 -3,-9 -3,-2 -6,-3 -10,-3 -3,0 -6,1 -9,3 -2,3 -3,6 -3,9 0,0 0,1 0,1zm-3 14c-3,-3 -6,-9 -6,-14 0,0 0,-1 0,-1 0,-6 3,-11 6,-15 4,-4 10,-6 15,-6 6,0 12,2 16,6 3,4 6,9 6,15 0,6 -3,12 -6,15 -4,4 -10,7 -16,7 -5,0 -11,-3 -15,-7zm64 40c-2,1 -4,1 -6,-1 -2,-1 -2,-4 0,-6l8 -8 -8 -8c-2,-2 -2,-5 0,-6 2,-2 4,-2 6,0l11 11 0 0c2,2 2,4 0,6l-11 12zm-23 -29c2,-2 4,-2 6,0 2,1 2,4 0,6l-8 8 8 8c2,2 2,5 0,6 -2,2 -4,2 -6,1l-11 -12 0 0c-2,-2 -2,-4 0,-6l11 -11z"/>
	</symbol>
	<symbol id="thunder" viewBox="0 0 124 124">
		<rect fill="transparent" width="124" height="124"/>
		<path d="M64 14c1,-2 2,-2 3,-2 2,0 4,1 4,4l0 32 27 0c2,0 4,2 4,4 0,1 0,2 -1,2l-41 57c-1,2 -4,2 -5,1 -1,-1 -2,-2 -2,-3l0 0 0 -33 -27 0c-2,0 -4,-1 -4,-4 0,-1 0,-1 1,-2l41 -56zm-1 38l0 -25 -30 42 24 0c2,0 4,1 4,3l0 25 30 -41 -24 0c-2,0 -4,-2 -4,-4z"/>
	</symbol>
	<symbol id="ruler-pencil" viewBox="0 0 114 114">
		<rect fill="transparent" width="114" height="114"/>
		<path d="M14 103l0 0 0 0c-2,0 -3,-2 -3,-4l0 -19 0 0c0,-1 0,-1 1,-2l21 -21 -21 -21 0 0c-2,-2 -2,-4 0,-5l19 -19c1,-2 3,-2 5,0l21 21 16 -17c2,-1 4,-2 6,-3 2,-1 4,-2 6,-2 5,0 9,2 12,5 3,4 5,8 5,12 0,3 0,5 -1,7 -1,2 -2,4 -4,5l-7 7 0 0 0 0 -9 10 21 21c1,1 1,4 0,5l0 0 -19 19c-1,1 -4,1 -5,0l-21 -21 -21 21c-1,0 -2,1 -3,1l-19 0zm4 -7l14 0 22 -23 0 0 0 0 29 -28 -14 -14 -10 9 0 0 0 0 -19 19 0 0 0 0 -22 23 0 14zm36 -23l0 0 0 0zm33 -33l5 -5c1,-1 2,-2 2,-3 1,-1 1,-2 1,-4 0,-2 -1,-5 -3,-7 -2,-1 -4,-2 -7,-2 -1,0 -2,0 -4,0 -1,1 -2,2 -3,2l-4 5 13 14zm-11 22l-14 14 7 6 4 -4c2,-1 4,-1 5,0 2,1 2,4 0,5l-4 4 6 7 14 -14 -18 -18zm-38 -10l14 -14 -19 -19 -14 14 7 7 5 -5c1,-1 3,-1 5,0 1,2 1,4 0,5l-5 5 7 7zm52 -5c-1,2 -4,2 -5,0l5 0z"/>
	</symbol>
	<symbol id="badge" viewBox="0 0 105 105">
		<rect fill="transparent" width="105" height="105"/>
		<path d="M29 40c0,6 3,12 7,16 4,4 10,6 16,6 7,0 12,-2 16,-6 2,-2 3,-3 4,-5l0 0c2,-4 3,-7 3,-12 0,-6 -2,-12 -7,-16 -4,-4 -9,-6 -16,-6 -6,0 -12,2 -16,6 -4,4 -7,10 -7,16 0,1 0,1 0,1zm3 20c-1,0 -2,-1 -2,-1l-9 16 9 -1c2,0 3,1 3,2l5 8 9 -16c-6,-1 -11,-4 -15,-8zm-6 -8c-2,-3 -3,-8 -3,-12 0,0 0,0 0,-1 0,-8 3,-15 9,-20 5,-6 12,-9 20,-9 8,0 16,3 21,9 5,5 9,12 9,20 0,5 -1,10 -3,13l13 24c1,1 1,2 1,2 0,2 -2,4 -3,3l-14 0 -6 12c0,0 -1,1 -1,1 -2,1 -4,0 -5,-1l-12 -21 -12 21c0,0 0,1 -1,1 -2,1 -4,0 -4,-1l-6 -12 -14 0 0 0c-1,0 -1,0 -2,0 -1,-1 -2,-3 -1,-4l14 -25zm47 8c-4,4 -9,7 -15,8l9 16 4 -8c1,-2 2,-2 3,-2l0 0 10 1 -9 -16c-1,0 -1,1 -2,1z"/>
	</symbol>
	<symbol id="" viewBox="0 0  ">
		<rect fill="transparent" width="" height=""/>
		<path d=""/>
	</symbol>
</svg>